<?xml version="1.0" encoding="UTF-8"?>
<svg xmlns="http://www.w3.org/2000/svg" xmlns:xlink="http://www.w3.org/1999/xlink" version="1.1" width="30" height="30" x="0" y="0" viewBox="0 0 24 24" style="enable-background:new 0 0 512 512" xml:space="preserve">
  <g>
    <path fill="#ffffff" fill-rule="evenodd" d="M12 11.25a2.75 2.75 0 1 0 0-5.5 2.75 2.75 0 0 0 0 5.5zm0-7a4.25 4.25 0 0 1 2.773 7.47c.289.1.574.214.853.345a6.619 6.619 0 0 1 3.692 4.7l.178.892a1.75 1.75 0 0 1-1.716 2.093H6.22a1.75 1.75 0 0 1-1.716-2.093l.178-.892a6.619 6.619 0 0 1 3.692-4.7c.28-.13.564-.245.853-.344A4.25 4.25 0 0 1 12 4.25zm-2.992 9.174a5.12 5.12 0 0 0-2.855 3.635l-.178.892a.25.25 0 0 0 .245.299h11.56a.25.25 0 0 0 .245-.299l-.178-.892a5.119 5.119 0 0 0-2.855-3.635 7.076 7.076 0 0 0-5.984 0z" clip-rule="evenodd" opacity="1" data-original="#000000"/>
  </g>
</svg>
